<svg xmlns="http://www.w3.org/2000/svg" width="212" height="212" viewBox="167.00 214.50 212.00 212.00" role="img" aria-label="Zelf mark">
  <style>
    /* stroke draw-in; pathLength=1 normalises the dash math to the whole path */
    @media (prefers-reduced-motion: no-preference) {
      path {
        stroke-dasharray: 1;
        stroke-dashoffset: 1;
        animation: logo-draw 2s linear forwards;
      }

      @keyframes logo-draw {
        to {
          stroke-dashoffset: 0;
        }
      }
    }
  </style>
  <path pathLength="1" d="M 368.63 349.74 A 100.00 100.00 0 0 0 343.71 249.79 A 100.00 100.00 0 0 0 202.29 249.79 A 100.00 100.00 0 0 0 202.29 391.21 A 238.27 238.27 0 0 0 343.71 249.79 A 238.27 238.27 0 0 0 202.29 391.21 A 100.00 100.00 0 0 0 343.71 391.21 A 238.27 238.27 0 0 0 202.29 249.79 A 238.27 238.27 0 0 0 343.71 391.21" fill="none" stroke="#58a6ff" stroke-width="10" stroke-linecap="round" stroke-linejoin="round"/>
</svg>
